/* XPM */
static char *EST1675336288[] = {
/* columns rows colors chars-per-pixel */
"32 32 107 2 ",
"   c #5D3F2C",
".  c #613F2D",
"X  c #5E422D",
"o  c #5B4D2E",
"O  c #5C502F",
"+  c #5E4532",
"@  c #5E4E31",
"#  c #5F5C35",
"$  c #63432E",
"%  c #654530",
"&  c #694631",
"*  c #624D32",
"=  c #6B4933",
"-  c #734D37",
";  c #754E39",
":  c #645133",
">  c #625B35",
",  c #75513B",
"<  c #7B523B",
"1  c #74583C",
"2  c #795C3E",
"3  c #5C554A",
"4  c #5C5950",
"5  c #62574C",
"6  c #65594C",
"7  c #695B4E",
"8  c #735541",
"9  c #7E5740",
"0  c #7F5943",
"q  c #715E50",
"w  c #81563E",
"e  c #83583E",
"r  c #835641",
"t  c #845942",
"y  c #8B5D43",
"u  c #8E6146",
"i  c #8D6C47",
"p  c #8E6349",
"a  c #8F6A49",
"s  c #926346",
"d  c #956549",
"f  c #99664A",
"g  c #946A4C",
"h  c #9C694B",
"j  c #8E704A",
"k  c #9A6D51",
"l  c #A16C4E",
"z  c #A66E50",
"x  c #AD7256",
"c  c #AD745A",
"v  c #B17457",
"b  c #B4765A",
"n  c #BA775B",
"m  c #B5785B",
"M  c #BA7A5C",
"N  c #B77C60",
"B  c #BA7C61",
"V  c #C17E60",
"C  c #589542",
"Z  c #539C44",
"A  c #66944B",
"S  c #6A964D",
"D  c #69994D",
"F  c #749A57",
"G  c #769E5A",
"H  c #7D9E5A",
"J  c #4DA043",
"K  c #4DAA45",
"L  c #52A146",
"P  c #5AA147",
"I  c #51AA47",
"U  c #54A649",
"Y  c #55AB49",
"T  c #59AD4A",
"R  c #5AB04D",
"E  c #65A34F",
"W  c #69A34F",
"Q  c #66A751",
"!  c #6CA652",
"~  c #65AF54",
"^  c #6EAD56",
"/  c #74A45A",
"(  c #71A85A",
")  c #79AB5D",
"_  c #66B154",
"`  c #6AB255",
"'  c #6EB35A",
"]  c #73B55D",
"[  c #7FB85F",
"{  c #76AB60",
"}  c #7AAF60",
"|  c #76B661",
" . c #7BB665",
".. c #76B961",
"X. c #7CB964",
"o. c #7EC562",
"O. c #80B95F",
"+. c #82B961",
"@. c #88BC64",
"#. c #C28063",
"$. c #84C666",
"%. c #88C766",
"&. c #82C865",
"*. c #89CA67",
"=. c #87C768",
"-. c #87CA69",
";. c #8ACA6A",
/* pixels */
"U T -.;.X.X.X.X.;.=.T K I I ~ '  .X.] ^ ' ` ^ ` Y Y ] o.X. .' ` ",
"Y Y o.&.X.X.....=.$.T K K K _ ` ] ] ` ` ` ' _ _ T T ] ] ....~ ~ ",
"~ _ Y R $.$.R T ....Y K K K _ _ Y Y ~ ` ] ] Y Y O.&.T Y ` ~ Y I ",
"( ` I Y X.+.T Y ....I K I I _ _ I I _ ] X.] Y I [ O.I K ` ` Y I ",
" ..._ E > > E ` $.$.Y I ' | ..| I I o.*.*.&.Y J # > Z I o.*.` _ ",
" ...! S : * E ` $.$.P Z ( { | ] T Y [ @.%.&.R L : * Z R o.-.' _ ",
"' ! > : u i P Y ..} # o @ # Z I ~ Q # > W ' ] ) j i ) ..-.*.` _ ",
"~ Q o $ u i C L ( G : % $ @ Z I E D : : A ! .. .g a H ) $.$.! Q ",
"Y Z o   < < O o O : u s < 1 ! Q # : u s : > ) ) > $ * > ! ^ > @ ",
"Z C * % ; ; & & $ = u d w 2 S S : $ s s & * F / : X   @ A S * X ",
"@ * p p < w x b f s < w d p * @ = < f f < - : o X X - - : O - - ",
"% % y p < < b M h p < < s u % % < t s f w < $ X $ % , , $ $ ; < ",
", - % % ; w f h 7 3 + % < ; X % x m h h s s $ $ y u 5 3 + + y d ",
"t < & % - < h g 7 3 % & ; ; $ % b M l s f s & & s g 7 5 % = u f ",
"N b f p $ = b n 9 8 s s < ; $ % s h e < < < ; < s h g p d d < < ",
"N b h p = = m M e < h h < < & = s f < , < < < < s g d h h h < , ",
"w w < e s f V M h h n m w < s d f f < < s s < < < < f h f d < < ",
"r < < < s f n n f d b v w < d h l h < e d f e ; < < s h h d e < ",
"M b w ; < w h f = % < w < < s l M M h f f d < ; ; < s h f f f i ",
"m b e < < < s s = % ; ; w w h l n n h g l h e < ; < d f f f f s ",
"9 w s s < < < < s p 5 5 c M B n e w w w b n l u = $ s f e < < < ",
"r t l h w w < w h h 5 7 c M m x w , - w b M z h = $ u s < < < < ",
"B M M M h f f h n M 0 , < < = & < < ; < f l n n e - < < ; < s f ",
"V V M m f s s s n m w , < ; $ X - ; < < s f V n e ; ; < < w u s ",
"#.M y < & . $ = s h w < ; ; $ $ ; ; < ; < r n B 7 5 , < s s & $ ",
"B n w ; = = $ & u s < ; < < $ $ < < < < < w b b q 5 , < s s & $ ",
"l f 9 < v v < ; % $ $ $ s s < < s s < < s f h z d a w ; < < , - ",
"g s < w x v e < $ $ $ & y s w w f f < , s f h l f d < < < w r e ",
"9 < < ; & = s d < ; ; ; $ = s d f s & $ ; r m n t < < < s f m M ",
"< < < < . & d f w < w < $ % d h f u % X - < x c e ; ; < s f b n ",
"d d d d < < d d < < c b & % b m e < $ X X + 5 6 , < < ; < < w < ",
"k k k g 9 9 g f 9 0 N B : = N B t , * X + + 4 4 8 < < 8 9 < < < "
};
