/* XPM */
static char *NORD1675336288[] = {
/* columns rows colors chars-per-pixel */
"32 32 30 1 ",
"  c #349E36",
". c #34A035",
"X c #37A039",
"o c #39A139",
"O c #41A63D",
"+ c #4CA743",
"@ c #4CA944",
"# c #51AA47",
"$ c #54AB49",
"% c #59AD4B",
"& c #5DB14E",
"* c #64AF52",
"= c #6AAF54",
"- c #65B153",
"; c #6BB256",
": c #6DB459",
"> c #72B65D",
", c #71B85D",
"< c #75B761",
"1 c #79B763",
"2 c #76B862",
"3 c #7AB964",
"4 c #79C25F",
"5 c #7DC462",
"6 c #83C665",
"7 c #85C966",
"8 c #86C769",
"9 c #8BC769",
"0 c #86C968",
"q c #89CA6A",
/* pixels */
"+@@#=:06$@@#--@$5q531113qq333133",
"###%->06#@@@--$&0q33<<138q111211",
"<<<<23q6$@@#-;,20q32%%<1:;:-%%;;",
"11133305%#@#-;330033%%<2:;--##=:",
"=:13q7>:<>=*=:77,:8005::<<%#:<<1",
"=:11q7::33==-:67::0q00,:12%%<313",
"=:=>33>33>$#=;::2133::00qq663331",
"*==>11>>1>$#;:=>2312:,50q0883113",
"#$>>:*oo=;=-672233;:50,::;%%-:;;",
"#%13:*. *=;>qq3232:;00:---%#-;::",
"779976**=:,,31::50:;1322%#*-<167",
"7qqq76:==:,22>;:00;-,12,#@%*,<89",
"$&78>:=;=:%%=;-:q0&@$$$#@@  +%23",
"@%89>;;;=*##;;::55&$$$@@@@X +#<3",
"@$,66776$#*;>396&&,,55%@&-55-==-",
"#%23qqq6$$*;>275#@2300%#-;60:;;;",
"55;,08>:----$$$$@#21q7;-;;::;;>>",
"q5,:08::::::$@###%2376,:-;;:;=>3",
"%&00q033<285--<<<222>>66:;>211>:",
"@&0qqq333385>:213312;:56>;231>:=",
"*-:,0qqq32%%<>$$2332;=%&57q8>=$#",
";--:0qqq3>$$><$$>221:;#$6q77>=$+",
"75$&8q32$$<<:;--%%;:66;-::::1<$+",
"q6#&8852$#<2:=--@@=:80::--=:>>%$",
"qq113696##22:-;-@#,3qq06&#--%%46",
"qq333363##,2:---$$,26606%@&-$$6q",
"333394Oo+@=:2222--22&%;:--#$:>::",
"1233q4. +#*=2332;;11%@*=;-#@,2;;",
";:12&$O+@##$;:31;;;;--$$><$#50:;",
"-;1:#@@#@###-:22:;;:;;$$>>$$57::",
"32%$@+@#-->270qq326708<<>=-&%%66",
"32@+@++#-;23qqqq33qqqq31;==-##6q"
};
