/* XPM */
static char *SO1675336288[] = {
/* columns rows colors chars-per-pixel */
"32 32 49 1 ",
"  c #5E3F2D",
". c #5E412D",
"X c #5E4530",
"o c #62442E",
"O c #68472F",
"+ c #654630",
"@ c #694731",
"# c #654A34",
"$ c #6C4933",
"% c #6B4E38",
"& c #714D36",
"* c #754E39",
"= c #76513A",
"- c #7B533B",
"; c #5C5349",
": c #63564A",
"> c #655A4D",
", c #6A5C4F",
"< c #7B5741",
"1 c #7D5942",
"2 c #685C50",
"3 c #81563E",
"4 c #84583F",
"5 c #89593F",
"6 c #825741",
"7 c #855941",
"8 c #8A5C43",
"9 c #8D6145",
"0 c #8E6349",
"q c #936346",
"w c #956549",
"e c #99664A",
"r c #94694C",
"t c #9B694B",
"y c #976B50",
"u c #9B6D52",
"i c #A16C4D",
"p c #A46D50",
"a c #AA6F54",
"s c #AD7256",
"d c #AD755A",
"f c #B17357",
"g c #B47659",
"h c #B8775B",
"j c #B5785C",
"k c #BB7A5D",
"l c #BC7C61",
"z c #C17C5F",
"x c #C37E61",
/* pixels */
"xgOoqrt0o#jkiw-=..=-eet0oOkj-=*1",
"xh*$qtw9$&sfeq7-oO&=etiwO$as-=-7",
"xktete3-qq3--4jg-&oOwikf-&OO=-ry",
"gfptq045qw44-5jf-%o$wikf3=$&=-qy",
"O%dl22dj44gktetwOo*-etie-4gf1*-6",
".$dg>2jk--ggqqwq$$*3qweq=-sa3**1",
"*-ee<6kjOOewOO=3qq-*--eqO.+@*-*1",
"*=08--ss&&q9oo%=ew-**3tt*$$&---7",
"o.oo**O&ff3*...Oww-*=6kkkhjjteer",
"o.oo**O&aa3&...Oqw=&=3sgjjkjeetu",
"**==*3q9$O  .. @eqO+**@#:2te-3eu",
"-=-=*3q5@o$Oo. +88oo33##;;09--9r",
"*=**3*33*3ff-&  oo +fge8X.oO==+#",
"*-**&***36ff-&ooo++&hxpe@o$&6-#%",
"-*o  o*3qw3-oo&**=0tkxxg--ghkger",
"*&oo@&**ww3-@@&*-6tpxxga<7zzkktu",
".  @ds$+qtewq9oOqtkkxg&$=4kziieu",
"OOO&ss+o9qtttq$$qtgkhs$O=3fsewwy",
"qqw0,:X.oOqtttwq3-33-4q9-=#$---6",
"ttq0>:#+.Oqtwwwq-=3345ie=&.o33=<",
"tq$$8rq9=-ee---3=3fkkkzf@  $gf-1",
"teoOeiit--ww3-*==5fkkzkf@o $gf<<",
"zg+$gxzg4*=3w9O$ww34tiie=& @te=1",
"xgO+fkkg-*34q9$&we-3eeeq-*o$et<7",
"xk@o-4te+$fd$&dfttqwette-==6hhty",
"ks&@-7q8@@sa@$jjtettwett---6gfwy",
"-39egs%+**@@&-titttw-7gd>>qq6-+%",
"-3qekh&O**XX*-tttqeq=4kj>>rw-*o#",
"wq@$kleq-<;;*4jj4--=o&hh<-wteq*-",
"wq$*fgte-*;;=4gg54-=+$gg87wttw-1",
"-4sd77ee-*+X&1tpkjeq*-tphgttew-<",
"*3ll3-qe<& +*-eulktr<-etxlutee=1"
};
