/* XPM */
static char *WEST1675336243[] = {
/* columns rows colors chars-per-pixel */
"32 32 100 2 ",
"   c #5E422D",
".  c #5C4A2E",
"X  c #5C4432",
"o  c #5E4B30",
"O  c #5D5632",
"+  c #5E5933",
"@  c #62432E",
"#  c #60502F",
"$  c #654530",
"%  c #694731",
"&  c #644C32",
"*  c #6B4933",
"=  c #734D36",
"-  c #744E39",
";  c #794F3A",
":  c #645333",
">  c #6A5135",
",  c #76513B",
"<  c #7B523C",
"1  c #745C3B",
"2  c #7A5F3E",
"3  c #5D5447",
"4  c #5C554B",
"5  c #62574C",
"6  c #65594D",
"7  c #6A5A4D",
"8  c #765341",
"9  c #7D5740",
"0  c #6C5D50",
"q  c #82563E",
"w  c #84583F",
"e  c #835741",
"r  c #845941",
"t  c #8A5B42",
"y  c #8E6146",
"u  c #8B6C46",
"i  c #8D6349",
"p  c #8D6B49",
"a  c #926347",
"s  c #956549",
"d  c #99664A",
"f  c #95694C",
"g  c #9C694B",
"h  c #8C7049",
"j  c #92704B",
"k  c #A26C4D",
"l  c #A46D50",
"z  c #AE7256",
"x  c #AD755A",
"c  c #B4765A",
"v  c #B8775A",
"b  c #B6795C",
"n  c #BA7A5D",
"m  c #BC7B60",
"M  c #C07D5F",
"N  c #C27F63",
"B  c #548B3F",
"V  c #58913F",
"C  c #559B43",
"Z  c #599E47",
"A  c #67934B",
"S  c #69934C",
"D  c #659F4D",
"F  c #699C4F",
"G  c #749957",
"H  c #799B57",
"J  c #4DA646",
"K  c #4DA945",
"L  c #55A547",
"P  c #52AB47",
"I  c #52A749",
"U  c #54AB49",
"Y  c #5AAD4B",
"T  c #65A34E",
"R  c #65A550",
"E  c #69A452",
"W  c #66AF53",
"Q  c #6AAE56",
"!  c #6CAE58",
"~  c #73A459",
"^  c #77AC5D",
"/  c #7BAD5E",
"(  c #66B153",
")  c #6AB256",
"_  c #6DB359",
"`  c #6FB85F",
"'  c #73B55E",
"]  c #7EB25C",
"[  c #75B85F",
"{  c #7BAD61",
"}  c #75B761",
"|  c #79B764",
" . c #76B961",
".. c #7BBA65",
"X. c #7EC362",
"o. c #83B760",
"O. c #82C665",
"+. c #85C866",
"@. c #86C868",
"#. c #89CA69",
/* pixels */
"! _ | | ..' I I W ) Q Q ) Q | | ) W I K K U O.#.........#.@.U J ",
"W W [ | [ ' Y Y W ( ) ) ) ) ' ' ) ) P K K P X.@. . ...o.O.X.Y I ",
"L U W ( P U O.O.U U [ | ) W P I ( ( K K K P }  .U U O.+.U U W W ",
"U U ) ) K P ] ] P U [ ..' ) P K ) ) U P K I  . .Y Y ] | Y U ( _ ",
"Q ) +.O.P C + + C P O.#.+.O.U L ' |  .` U U +.@.) R + : R _ } | ",
"! _ @.+.Y L : # Z Y X.+.o.o.Y U _ ' ~ ~ C C X.+.) R : * S F ' | ",
") _ @.#.| / j j / [ _ E : O T ( U C + . . O ^  .U L h i & O R ! ",
"F E O.O.^ H p h o.[ E S : : A D U C # @ % > G ~ L V u y $ . D W ",
"# O E E O X $ : { { O & a a # O R E 1 ; a a & X . . ; , @ . V P ",
"@ & S S &     o G G & $ s s % & A S 2 e a y = % * * , ; * # B C ",
", = # & = =     X & , < s s < = & & a s < < a g v c q < a a # . ",
"< , @ @ 8 - % %   $ , e s g w q @ @ y a , < i f b v q < y t % @ ",
"g y $ X 4 5 i y @ @ a d d k v c %   , ,   X 4 6 f g < ; @ & = , ",
"s a * * 5 7 f a % % a s a s v z %   = , % * 3 6 g g , ; % % < e ",
"< q a s a f g s < ; , < q q d s $ @ , < a a < 9 c c * $ t f b m ",
", < s g g s s a < , < q ; < d a * % ; < g g e r n b = * a g c b ",
"; 1 s d g d q < ; < s a < < s g d a < q v n g g n M g a q < q < ",
"< w d d d a < < ; q s s w w g k g d < q z b s s b n d a < ; q e ",
"j s s d d d < , ; < s g s k v n k d < ; < < @ % s g q < , < c n ",
"s d d d g a < = , w g k s s c v k g w q 8 , % % u a < ; < q c c ",
"< < < q d a $ $ a g n v w , q w v M n c 7 4 u a q , ; ; a f r q ",
"< < , < a y $ * d k n v q ; ; < z v b z 7 6 g g q < q q g g t q ",
"f s < < < < , < v n l d < ; , , % % < q 1 < b n g d g g v M b b ",
"a y q < , < , q n n g a q ; < =     = , ; q c b s a a a c n N N ",
"$ % a s < ; 3 6 b b r < < ; ; ; @ @ = ; , < d f * @ @ % < t b N ",
"  % a s < , 6 0 b v r < , < < < @ @ < < = ; y y % @ * * ; < c n ",
", ; < < < < a f k g f a < < s a ; , a a % @ @ @ = < z c e < g g ",
"9 q < < < < a s g g d a , , s d w q a y & @ X $ < q z z q < a s ",
"m v g a < ; < e b b r , @ $ a g d a % % = - - < a a = $ ; ; < < ",
"b c g a < ; ; 9 x x < = @ & y s g d @ @ < 9 < < f a $ $ , < < < ",
"e < < < ; , , , 6 6 .       , w v c % % z c e < s d < < s f d s ",
"8 < < 8 , < < 8 4 4 X     @ , q n n * * m m r < f f 9 9 f g g g "
};
